<svg width="500" height="500" viewBox="0 0 500 500" fill="none" xmlns="http://www.w3.org/2000/svg">
<path d="M120.703 256.8C120.703 230 124.303 206.4 131.503 186C139.103 165.6 149.303 148.6 162.103 135C175.303 121 190.703 110.6 208.303 103.8C225.903 96.6 244.903 93 265.303 93C283.303 93 298.503 95.2 310.903 99.6C323.703 104 334.103 110 342.103 117.6C350.103 125.2 355.903 134.2 359.503 144.6C363.503 155 365.503 166.2 365.503 178.2C365.503 192.6 361.503 206.4 353.503 219.6C345.503 232.4 333.903 243.8 318.703 253.8C303.903 263.4 285.903 271.2 264.703 277.2C243.503 282.8 219.703 285.8 193.303 286.2C194.503 295.4 196.303 304.2 198.703 312.6C201.503 320.6 205.303 327.8 210.103 334.2C215.303 340.2 221.903 345 229.903 348.6C237.903 352.2 247.903 354 259.903 354C268.703 354 278.103 353 288.103 351C298.103 349 307.303 346.6 315.703 343.8C325.703 340.6 335.503 337 345.103 333L363.103 375.6C352.703 380.8 341.503 385.4 329.503 389.4C319.103 393 307.103 396.2 293.503 399C279.903 401.8 265.503 403.2 250.303 403.2C227.103 403.2 207.303 399.8 190.903 393C174.503 385.8 161.103 375.8 150.703 363C140.303 350.2 132.703 334.8 127.903 316.8C123.103 298.8 120.703 278.8 120.703 256.8ZM259.903 139.8C246.703 139.8 235.703 143 226.903 149.4C218.503 155.4 211.703 163.4 206.503 173.4C201.303 183 197.503 194 195.103 206.4C193.103 218.4 191.903 230.6 191.503 243C210.703 242.2 226.903 239.8 240.103 235.8C253.703 231.4 264.703 226.2 273.103 220.2C281.503 213.8 287.503 207 291.103 199.8C295.103 192.6 297.103 185.4 297.103 178.2C297.103 166.6 293.703 157.4 286.903 150.6C280.103 143.4 271.103 139.8 259.903 139.8Z" fill="#529897"/>
</svg>
