<svg width="500" height="500" viewBox="0 0 500 500" fill="none" xmlns="http://www.w3.org/2000/svg">
<path d="M252.978 115.737C246.453 117.812 240.106 124.569 238.742 130.852C238.267 132.926 238.089 153.138 238.089 194.57C238.089 228 237.971 255.325 237.852 255.325C237.674 255.325 236.843 255.029 235.894 254.673C227.59 251.472 212.878 250.287 203.387 252.006C177.524 256.807 156.465 275.3 149.465 299.365C143.652 319.28 148.338 343.464 161.211 360.179C181.202 386.14 220.234 392.719 250.131 375.234C256.716 371.381 266.444 361.72 270.596 354.963C276.054 346.012 279.376 336.232 280.74 324.971C281.155 321.355 281.393 295.69 281.393 245.426V171.217L303.4 182.182C317.103 188.999 326.594 193.385 328.493 193.74C335.077 195.044 343.026 192.555 347.831 187.754C349.195 186.391 351.153 183.486 352.161 181.352C353.763 177.974 354 176.788 354 172.639C353.941 166.653 352.339 162.266 348.602 158.117C345.992 155.213 343.619 153.968 305.892 135.119L265.969 115.145L260.749 115.026C257.546 114.907 254.58 115.204 252.978 115.737Z" fill="#FFDEC7"/>
</svg>
