<svg width="70" height="70" viewBox="0 0 70 70" fill="none" xmlns="http://www.w3.org/2000/svg">
<path d="M34.3 16.03H34.79L35.14 16.31L36.12 18.2L36.82 19.95L37.38 21.77L37.45 22.19L38.92 21.84L41.02 21.56L41.86 21.49H43.96L46.27 21.77L48.16 22.19L50.26 22.89L52.22 23.8L53.55 24.5L54.67 25.27L55.44 25.9L56.28 26.67L56.84 27.23L57.47 28L58.31 29.12L59.22 30.52L59.99 31.99L60.97 34.44L61.32 35.77L61.46 36.82V38.99L61.18 41.37L60.76 43.4L60.2 45.22L59.57 46.69L58.87 47.95L58.45 48.65L57.89 49.42L56.84 50.54L56.14 51.17L55.02 51.87L53.48 52.64L50.96 53.48L48.37 54.18L46.83 54.53L45.29 54.74L43.12 54.88H41.23L36.4 54.67L33.67 54.46L30.87 54.11L27.44 53.55L22.89 52.78L20.3 52.22L18.69 51.8L16.94 51.17L15.19 50.33L14.28 49.84L13.51 49.28L12.88 48.72L12.25 47.95L11.76 47.25L11.34 46.41L11.06 45.5L10.99 45.08V44.31L10.64 44.24L10.01 43.54L9.66001 42.98L9.31001 41.86L9.24001 41.51V39.76L9.52001 38.64L10.01 37.66L10.64 36.82L9.38001 37.17L8.40001 37.66L8.26001 37.8L7.98001 37.73L8.05001 37.45L8.40001 37.17L9.38001 36.75L10.43 36.47L11.13 36.4L11.9 35.84H12.04L11.76 34.86L11.06 34.72H9.66001L8.61001 35.14V35.28L8.26001 35.21L8.40001 34.86L8.96001 34.51L9.59001 34.3H11.06L11.69 34.44L11.41 33.04L11.34 32.34L11.27 29.96L10.15 27.72L9.59001 26.32L9.10001 24.64L8.89001 23.38L8.82001 22.68V21.63L8.96001 21.35L9.87001 20.79L10.78 20.37L11.69 20.09L12.46 19.95L13.23 19.88H13.93L15.05 20.02L16.17 20.37L17.08 20.79L18.48 20.16L20.44 19.46L22.12 18.97L24.22 18.55L25.97 18.34L27.65 18.27L29.19 18.34L30.1 17.57L31.22 16.87L32.34 16.38L33.6 16.1L34.3 16.03Z" fill="white"/>
<path d="M34.3 16.03H34.79L35.14 16.31L36.12 18.2L36.82 19.95L37.38 21.77L37.45 22.19L38.92 21.84L41.02 21.56L41.86 21.49H43.96L46.27 21.77L48.16 22.19L50.26 22.89L52.22 23.8L53.55 24.5L54.67 25.27L55.44 25.9L56.28 26.67L56.84 27.23L57.47 28L58.31 29.12L59.22 30.52L59.99 31.99L60.97 34.44L61.32 35.77L61.46 36.82V38.99L61.18 41.37L60.76 43.4L60.2 45.22L59.57 46.69L58.87 47.95L58.45 48.65L57.89 49.42L56.84 50.54L56.14 51.17L55.02 51.87L53.48 52.64L50.96 53.48L48.37 54.18L46.83 54.53L45.29 54.74L43.12 54.88H41.23L36.4 54.67L33.67 54.46L30.87 54.11L27.44 53.55L22.89 52.78L20.3 52.22L18.69 51.8L16.94 51.17L15.19 50.33L14.28 49.84L13.51 49.28L12.88 48.72L12.25 47.95L11.76 47.25L11.34 46.41L11.06 45.5L10.99 45.08V44.31L10.64 44.24L10.01 43.54L9.66001 42.98L9.31001 41.86L9.24001 41.51V39.76L9.52001 38.64L10.01 37.66L10.64 36.82L9.38001 37.17L8.40001 37.66L8.26001 37.8L7.98001 37.73L8.05001 37.45L8.40001 37.17L9.38001 36.75L10.43 36.47L11.13 36.4L11.9 35.84H12.04L11.76 34.86L11.06 34.72H9.66001L8.61001 35.14V35.28L8.26001 35.21L8.40001 34.86L8.96001 34.51L9.59001 34.3H11.06L11.69 34.44L11.41 33.04L11.34 32.34L11.27 29.96L10.15 27.72L9.59001 26.32L9.10001 24.64L8.89001 23.38L8.82001 22.68V21.63L8.96001 21.35L9.87001 20.79L10.78 20.37L11.69 20.09L12.46 19.95L13.23 19.88H13.93L15.05 20.02L16.17 20.37L17.08 20.79L18.48 20.16L20.44 19.46L22.12 18.97L24.22 18.55L25.97 18.34L27.65 18.27L29.19 18.34L30.1 17.57L31.22 16.87L32.34 16.38L33.6 16.1L34.3 16.03ZM42.21 22.54L40.04 22.75L38.5 23.03L37.87 23.24L38.08 23.94L38.64 25.76L39.06 27.86L39.2 28.98V31.57L39.9 31.5H40.53L41.37 31.64L42 31.92L42.07 32.2L41.16 31.85L40.81 31.78H39.69L39.13 31.92L38.85 33.46V33.67L40.04 33.74L40.95 34.02L41.65 34.37L42 34.65V34.86L41.72 34.79L41.09 34.37L40.39 34.09L40.04 34.02H38.85L38.64 34.23L38.29 35.28L37.52 36.89L36.75 38.01L36.12 38.78L35.07 39.83L34.02 40.6L32.9 41.3L31.78 41.93L30.8 42.35L31.08 42.49L32.27 42.63L33.32 42.7H36.19L39.27 42.42L41.58 42.14L44.31 41.65L46.27 41.23L47.74 40.81L49.56 40.18L51.24 39.41L51.59 39.2H52.01L52.22 39.41V39.9L52.01 40.11L50.89 40.67L49.42 41.3L47.32 42L44.52 42.63L42.21 43.05L38.85 43.47L36.61 43.68H32.83L30.31 43.4L23.38 42.42L20.93 42.07L18.62 41.86L17.57 41.79H15.12L14.14 41.93L13.3 42.28L12.67 42.91L12.25 43.61L12.11 44.03V45.22L12.46 46.27L12.95 47.11L13.79 48.09L14.63 48.79L15.4 49.28L16.59 49.91L18.27 50.54L19.95 51.03L22.82 51.66L25.55 52.15L30.59 52.99L33.39 53.34L35.7 53.55L39.76 53.76H44.24L46.2 53.55L48.16 53.13L50.26 52.57L53.41 51.52L54.53 50.89L55.65 50.05L56.49 49.28L57.19 48.58L57.89 47.46L58.45 46.48L59.08 45.15L59.57 43.68L59.99 41.93L60.27 40.11L60.41 38.57V37.24L60.27 35.98L59.99 34.93L59.15 32.76L58.59 31.64L57.96 30.52L57.12 29.33L56.42 28.42L55.65 27.58L54.81 26.74L53.62 25.83L52.71 25.27L51.1 24.43L49.63 23.8L48.16 23.31L46.41 22.89L44.52 22.61L43.47 22.54H42.21Z" fill="#16284B"/>
<path d="M34.3 16.03H34.79L35.14 16.31L36.12 18.2L36.82 19.95L37.38 21.77L37.45 22.19L38.92 21.84L41.02 21.56L41.86 21.49H43.96L46.27 21.77L48.16 22.19L50.26 22.89L52.22 23.8L53.55 24.5L54.67 25.27L55.44 25.9L56.28 26.67L56.84 27.23L57.47 28L58.31 29.12L59.22 30.52L59.99 31.99L60.97 34.44L61.32 35.77L61.46 36.82V38.99L61.18 41.37L60.76 43.4L60.2 45.22L59.57 46.69L58.87 47.95L58.45 48.65L57.89 49.42L56.84 50.54L56.14 51.17L55.02 51.87L53.48 52.64L50.96 53.48L48.37 54.18L46.83 54.53L45.29 54.74L43.12 54.88H41.23L36.4 54.67L33.67 54.46L30.87 54.11L27.44 53.55L22.89 52.78L20.3 52.22L18.69 51.8L16.94 51.17L15.19 50.33L14.28 49.84L13.51 49.28L12.88 48.72L12.25 47.95L11.76 47.25L11.34 46.41L11.06 45.5L10.99 45.08V44.31L10.64 44.24L10.01 43.54L9.66001 42.98L9.31001 41.86L9.24001 41.51V39.76L9.52001 38.64L10.01 37.66L10.64 36.82L9.38001 37.17L8.40001 37.66L8.26001 37.8L7.98001 37.73L8.05001 37.45L8.40001 37.17L9.38001 36.75L10.43 36.47L11.13 36.4L11.9 35.84H12.04L11.76 34.86L11.06 34.72H9.66001L8.61001 35.14V35.28L8.26001 35.21L8.40001 34.86L8.96001 34.51L9.59001 34.3H11.06L11.69 34.44L11.41 33.04L11.34 32.34L11.27 29.96L10.15 27.72L9.59001 26.32L9.10001 24.64L8.89001 23.38L8.82001 22.68V21.63L8.96001 21.35L9.87001 20.79L10.78 20.37L11.69 20.09L12.46 19.95L13.23 19.88H13.93L15.05 20.02L16.17 20.37L17.08 20.79L18.48 20.16L20.44 19.46L22.12 18.97L24.22 18.55L25.97 18.34L27.65 18.27L29.19 18.34L30.1 17.57L31.22 16.87L32.34 16.38L33.6 16.1L34.3 16.03ZM42.21 22.54L40.04 22.75L38.5 23.03L37.87 23.24L38.08 23.94L38.64 25.76L39.06 27.86L39.2 28.98V31.57L39.9 31.5H40.53L41.37 31.64L42 31.92L42.07 32.2L41.16 31.85L40.81 31.78H39.69L39.13 31.92L38.85 33.46V33.67L40.04 33.74L40.95 34.02L41.65 34.37L42 34.65V34.86L41.72 34.79L41.09 34.37L40.39 34.09L40.04 34.02H38.85L38.64 34.23L38.29 35.28L37.52 36.89L36.75 38.01L36.12 38.78L35.07 39.83L34.02 40.6L32.9 41.3L31.78 41.93L30.8 42.35L31.08 42.49L32.27 42.63L33.32 42.7H36.19L39.27 42.42L41.58 42.14L44.31 41.65L46.27 41.23L47.74 40.81L49.56 40.18L51.24 39.41L51.59 39.2H52.01L52.22 39.41V39.9L52.01 40.11L50.89 40.67L49.42 41.3L47.32 42L44.52 42.63L42.21 43.05L38.85 43.47L36.61 43.68H32.83L30.31 43.4L23.38 42.42L20.93 42.07L18.62 41.86L17.57 41.79H15.12L14.14 41.93L13.3 42.28L12.67 42.91L12.25 43.61L12.11 44.03V45.22L12.46 46.27L12.95 47.11L13.79 48.09L14.63 48.79L15.4 49.28L16.59 49.91L18.27 50.54L19.95 51.03L22.82 51.66L25.55 52.15L30.59 52.99L33.39 53.34L35.7 53.55L39.76 53.76H44.24L46.2 53.55L48.16 53.13L50.26 52.57L53.41 51.52L54.53 50.89L55.65 50.05L56.49 49.28L57.19 48.58L57.89 47.46L58.45 46.48L59.08 45.15L59.57 43.68L59.99 41.93L60.27 40.11L60.41 38.57V37.24L60.27 35.98L59.99 34.93L59.15 32.76L58.59 31.64L57.96 30.52L57.12 29.33L56.42 28.42L55.65 27.58L54.81 26.74L53.62 25.83L52.71 25.27L51.1 24.43L49.63 23.8L48.16 23.31L46.41 22.89L44.52 22.61L43.47 22.54H42.21Z" fill="white"/>
<path d="M34.3 16.03H34.79L35.14 16.31L36.12 18.2L36.82 19.95L37.38 21.77L37.45 22.19L38.92 21.84L41.02 21.56L41.86 21.49H43.96L46.27 21.77L48.16 22.19L50.26 22.89L52.22 23.8L53.55 24.5L54.67 25.27L55.44 25.9L56.28 26.67L56.84 27.23L57.47 28L58.31 29.12L59.22 30.52L59.99 31.99L60.97 34.44L61.32 35.77L61.46 36.82V38.99L61.18 41.37L60.76 43.4L60.2 45.22L59.57 46.69L58.87 47.95L58.45 48.65L57.89 49.42L56.84 50.54L56.14 51.17L55.02 51.87L53.48 52.64L50.96 53.48L48.37 54.18L46.83 54.53L45.29 54.74L43.12 54.88H41.23L36.4 54.67L33.67 54.46L30.87 54.11L27.44 53.55L22.89 52.78L20.3 52.22L18.69 51.8L16.94 51.17L15.19 50.33L14.28 49.84L13.51 49.28L12.88 48.72L12.25 47.95L11.76 47.25L11.34 46.41L11.06 45.5L10.99 45.08V44.31L10.64 44.24L10.01 43.54L9.66001 42.98L9.31001 41.86L9.24001 41.51V39.76L9.52001 38.64L10.01 37.66L10.64 36.82L9.38001 37.17L8.40001 37.66L8.26001 37.8L7.98001 37.73L8.05001 37.45L8.40001 37.17L9.38001 36.75L10.43 36.47L11.13 36.4L11.9 35.84H12.04L11.76 34.86L11.06 34.72H9.66001L8.61001 35.14V35.28L8.26001 35.21L8.40001 34.86L8.96001 34.51L9.59001 34.3H11.06L11.69 34.44L11.41 33.04L11.34 32.34L11.27 29.96L10.15 27.72L9.59001 26.32L9.10001 24.64L8.89001 23.38L8.82001 22.68V21.63L8.96001 21.35L9.87001 20.79L10.78 20.37L11.69 20.09L12.46 19.95L13.23 19.88H13.93L15.05 20.02L16.17 20.37L17.08 20.79L18.48 20.16L20.44 19.46L22.12 18.97L24.22 18.55L25.97 18.34L27.65 18.27L29.19 18.34L30.1 17.57L31.22 16.87L32.34 16.38L33.6 16.1L34.3 16.03ZM33.39 17.22L32.2 17.57L31.08 18.2L30.24 18.83L29.4 19.67L28.7 20.72L28.14 21.84L27.72 23.17L27.44 23.38L27.02 23.31L26.81 22.96L27.09 21.84L27.51 20.79L27.93 20.02L28.28 19.53V19.39H26.32L24.5 19.6L22.33 20.02L20.44 20.58L18.76 21.21L18.2 21.49L18.55 21.84L19.32 22.4L20.23 23.17L20.65 23.59V24.15L20.37 24.36L19.95 24.29L19.39 23.8L18.62 23.1L17.29 22.19L15.96 21.49L15.33 21.21L14.49 21H12.67L11.2 21.35L11.06 21.49L12.6 21.84L13.65 22.26L14.63 22.82L15.61 23.52L16.38 24.15L17.43 25.13L18.06 25.83L18.48 26.32V26.88L18.27 27.02H17.78L17.29 26.53L16.8 25.97L15.68 24.85L14.49 23.94L13.58 23.38L12.74 22.96L11.62 22.61L10.15 22.33H9.94001V23.1L10.22 24.71L10.64 26.11L11.41 27.86L12.32 29.68L12.39 30.17V32.06L12.6 33.67L12.88 34.79L13.44 35.14L14.14 35.49L14.91 36.05L15.05 36.33L14.77 36.26L13.72 35.56L13.09 35.28L13.16 35.7L13.58 36.75L13.86 37.24L14.49 37.45H14.84L14.77 37.73L14.07 37.66L14.49 38.43L15.12 39.2L15.75 39.76L16.87 40.46L17.29 40.74L20.58 41.02L23.17 41.37L28.07 42.07L29.19 41.86L30.38 41.44L32.13 40.6L33.25 39.9L34.02 39.34L34.93 38.57L35.7 37.73L36.4 36.75L36.96 35.77L37.38 34.86V34.72L37.1 34.86L36.4 35.42L35.98 35.77L35.77 35.84V35.49L36.05 35.35L36.75 34.72L37.59 34.16L37.87 33.25L38.01 32.48L37.66 32.62L36.96 33.25L36.19 34.16L35.98 34.44H35.77L35.84 34.16L36.47 33.39L37.1 32.69L37.87 32.13L38.08 31.99L38.22 30.73V29.26L38.01 27.58L37.66 25.97L37.03 23.94L36.68 23.17L36.4 22.26L35.84 20.37L35.07 18.48L34.72 17.85L34.44 17.99L33.88 18.69L33.32 19.6L32.76 20.79L32.48 21.91L32.41 22.33L32.34 24.22L32.06 24.5H31.64L31.43 24.29L31.36 24.08V22.68L31.57 21.35L31.92 20.16L32.48 19.04L33.04 18.13L33.6 17.43L33.67 17.22H33.39ZM42.21 22.54L40.04 22.75L38.5 23.03L37.87 23.24L38.08 23.94L38.64 25.76L39.06 27.86L39.2 28.98V31.57L39.9 31.5H40.53L41.37 31.64L42 31.92L42.07 32.2L41.16 31.85L40.81 31.78H39.69L39.13 31.92L38.85 33.46V33.67L40.04 33.74L40.95 34.02L41.65 34.37L42 34.65V34.86L41.72 34.79L41.09 34.37L40.39 34.09L40.04 34.02H38.85L38.64 34.23L38.29 35.28L37.52 36.89L36.75 38.01L36.12 38.78L35.07 39.83L34.02 40.6L32.9 41.3L31.78 41.93L30.8 42.35L31.08 42.49L32.27 42.63L33.32 42.7H36.19L39.27 42.42L41.58 42.14L44.31 41.65L46.27 41.23L47.74 40.81L49.56 40.18L51.24 39.41L51.59 39.2H52.01L52.22 39.41V39.9L52.01 40.11L50.89 40.67L49.42 41.3L47.32 42L44.52 42.63L42.21 43.05L38.85 43.47L36.61 43.68H32.83L30.31 43.4L23.38 42.42L20.93 42.07L18.62 41.86L17.57 41.79H15.12L14.14 41.93L13.3 42.28L12.67 42.91L12.25 43.61L12.11 44.03V45.22L12.46 46.27L12.95 47.11L13.79 48.09L14.63 48.79L15.4 49.28L16.59 49.91L18.27 50.54L19.95 51.03L22.82 51.66L25.55 52.15L30.59 52.99L33.39 53.34L35.7 53.55L39.76 53.76H44.24L46.2 53.55L48.16 53.13L50.26 52.57L53.41 51.52L54.53 50.89L55.65 50.05L56.49 49.28L57.19 48.58L57.89 47.46L58.45 46.48L59.08 45.15L59.57 43.68L59.99 41.93L60.27 40.11L60.41 38.57V37.24L60.27 35.98L59.99 34.93L59.15 32.76L58.59 31.64L57.96 30.52L57.12 29.33L56.42 28.42L55.65 27.58L54.81 26.74L53.62 25.83L52.71 25.27L51.1 24.43L49.63 23.8L48.16 23.31L46.41 22.89L44.52 22.61L43.47 22.54H42.21Z" fill="#010101"/>
<path d="M15.12 41.79H17.57L20.23 42L22.96 42.35L25.27 42.7L25.55 42.77L25.41 43.05L24.85 43.96L24.08 45.57L23.8 46.83L23.66 47.74L23.73 48.86L23.94 50.26L24.57 51.87L24.36 51.94L21.84 51.45L19.67 50.96L17.85 50.4L16.45 49.84L15.12 49.14L14.21 48.44L13.51 47.81L12.95 47.11L12.39 46.13L12.11 45.22V44.03L12.39 43.33L12.88 42.7L13.44 42.21L14.14 41.93L15.12 41.79Z" fill="#FDFDFD"/>
<path d="M9.94 22.33L10.92 22.47L12.11 22.75L13.23 23.17L14.28 23.8L15.4 24.64L16.24 25.41L17.22 26.39L17.57 26.81L17.5 26.95H16.52L15.4 27.23L14.42 27.72L13.58 28.49L13.16 28.98L12.6 29.96L12.46 30.1L12.11 29.26L11.27 27.58L10.57 25.9L10.22 24.71L9.94 23.1V22.33Z" fill="#FD6669"/>
<path d="M34.58 17.85H34.72L35.28 18.97L35.98 20.79L36.61 23.03L36.75 23.24V23.45L35.91 23.24L35.42 23.17H34.79L33.95 23.31L33.11 23.66L32.41 24.08V22.33L32.69 21L33.04 20.16L33.6 19.11L34.16 18.34L34.58 17.85Z" fill="#FD6669"/>
<path d="M12.11 37.03L12.6 37.1L13.3 38.43L13.86 39.27L14.49 39.97L15.26 40.67V40.74L13.86 40.95L13.51 41.02L13.44 39.76L13.16 39.83L13.02 41.23L12.32 41.79L11.76 42.42L11.62 42.56V41.65L11.69 39.48L11.41 39.41L11.34 39.55L11.2 43.19L10.85 42.84L10.5 42.14L10.29 41.3V39.97L10.57 38.85L11.2 37.87L11.97 37.1L12.11 37.03Z" fill="white"/>
<path d="M33.6 32.48H33.95L34.02 32.69L33.53 33.53L32.9 34.3L32.27 34.93L31.36 35.49L30.45 35.84L29.47 35.98H28.77L28.63 35.84L28.7 35.56L28.77 35.49L29.89 35.42L30.94 35.14L31.71 34.72L32.55 33.95L33.32 32.97L33.6 32.48Z" fill="black"/>
<path d="M16.87 35.63L17.22 35.7L17.99 36.19L18.83 36.54L19.88 36.75L21.07 36.82L22.05 36.68L22.4 36.54L22.75 36.61V36.89L22.12 37.17L21.35 37.31H20.3L19.04 37.1L17.92 36.75L16.94 36.12L16.8 35.98L16.87 35.63Z" fill="black"/>
<path d="M25.69 38.5H27.09L27.16 38.85L26.74 39.48L26.32 39.69H25.76L25.2 39.48L24.85 39.13L24.92 38.85L25.48 38.57L25.69 38.5Z" fill="#FD6669"/>
<path d="M27.23 38.5H27.3L27.23 39.13L26.74 39.69L26.39 39.83H25.69L25.2 39.62L24.85 39.27L24.92 39.13L25.34 39.48L25.76 39.62H26.32L26.74 39.41L27.09 38.85L27.23 38.5Z" fill="#000103"/>
<path d="M24.85 39.13L25.48 39.55L25.76 39.62H26.46L26.39 39.83H25.69L25.2 39.62L24.85 39.27V39.13Z" fill="#010306"/>
</svg>
