<svg width="36" height="36" viewBox="0 0 36 36" fill="none" xmlns="http://www.w3.org/2000/svg">
<path d="M29.4696 17.4006C29.4696 15.3216 28.7658 13.5972 27.5643 12.2454C27.6948 11.9529 27.8307 11.5605 27.8982 11.0673C28.053 9.94232 27.8703 9.26731 27.7155 8.60671C27.5607 7.94611 27.378 7.48172 27.378 7.48172C27.378 7.48172 26.5482 7.39711 25.8453 7.63651C25.1424 7.87591 24.5376 8.05861 23.6655 8.57881C23.2578 8.82181 22.8474 9.08822 22.5225 9.30422C21.1338 8.91902 19.6065 8.72101 18 8.72101C16.3791 8.72101 14.8383 8.91992 13.4397 9.30782C13.1139 9.09092 12.7008 8.82272 12.2904 8.57792C11.4183 8.05772 10.8135 7.87502 10.1106 7.63562C9.40772 7.39622 8.57792 7.48082 8.57792 7.48082C8.57792 7.48082 8.39522 7.94522 8.24042 8.60582C8.08562 9.26642 7.90292 9.94141 8.05772 11.0664C8.12702 11.5722 8.26742 11.9718 8.40152 12.2661C7.22252 13.6098 6.53132 15.3234 6.53132 17.3997C6.53132 22.7844 9.44012 25.2423 14.7402 25.8912C14.1219 26.5446 13.707 27.3816 13.5675 28.3131C13.2192 28.4661 12.8178 28.6101 12.4317 28.6677C11.4381 28.818 10.3878 28.6677 9.88201 28.368C9.37621 28.0683 8.77592 27.3933 8.32592 26.7363C7.94612 26.1819 7.39802 25.5384 6.90122 25.3116C6.24512 25.0119 5.60702 24.8994 5.25152 24.9552C4.89512 25.0119 4.72682 25.2738 4.80152 25.4619C4.87622 25.6491 5.23262 25.9308 5.60792 26.1369C5.98322 26.343 6.56462 26.9055 6.90212 27.4491C7.27832 28.0557 7.35212 28.4058 7.67072 29.0988C7.89482 29.5866 8.66162 30.1959 9.20792 30.5235C9.67682 30.8052 10.6137 30.9654 11.6271 31.0113C11.9772 31.0275 12.8043 30.9249 13.5018 30.8259V34.2009C13.5018 34.776 12.9753 35.2134 12.4299 35.1126C14.1804 35.7012 16.0497 36 18 36C19.9494 36 21.8187 35.7012 23.571 35.1144C23.0265 35.2143 22.5 34.7769 22.5 34.2018V28.9782C22.5 27.7821 22.0257 26.7012 21.2643 25.8957C26.5257 25.2639 29.4696 22.8645 29.4696 17.4006ZM6.51512 25.8543C6.37652 25.7832 6.30182 25.6518 6.34862 25.5591C6.39542 25.4664 6.54662 25.4493 6.68522 25.5204C6.82382 25.5915 6.89852 25.7229 6.85172 25.8156C6.80492 25.9083 6.65372 25.9254 6.51512 25.8543ZM7.60592 26.5338C7.53302 26.613 7.37642 26.5878 7.25582 26.478C7.13522 26.3682 7.09652 26.2143 7.16942 26.1351C7.24232 26.0559 7.39892 26.0811 7.51952 26.1909C7.64012 26.3007 7.67882 26.4546 7.60592 26.5338ZM8.28452 27.6588C8.19272 27.7236 8.03702 27.6633 7.93712 27.5238C7.83722 27.3843 7.83092 27.2178 7.92272 27.153C8.01452 27.0882 8.17022 27.1485 8.27012 27.288C8.36912 27.4275 8.37632 27.594 8.28452 27.6588ZM9.25922 28.5057C9.19712 28.6065 9.02072 28.611 8.86592 28.5165C8.71112 28.422 8.63551 28.2636 8.69761 28.1628C8.75971 28.062 8.93612 28.0575 9.09092 28.152C9.24572 28.2465 9.32132 28.4049 9.25922 28.5057ZM10.1808 29.3346C9.98912 29.3112 9.84692 29.1915 9.86312 29.0673C9.87842 28.9431 10.0467 28.8621 10.2375 28.8855C10.4292 28.9089 10.5714 29.0286 10.5552 29.1528C10.5399 29.2761 10.3725 29.358 10.1808 29.3346ZM11.6667 29.5497C11.4624 29.538 11.3031 29.421 11.3112 29.2896C11.3193 29.1582 11.4912 29.0601 11.6955 29.0718C11.8998 29.0835 12.0591 29.2005 12.051 29.3319C12.0429 29.4642 11.871 29.5614 11.6667 29.5497ZM13.0689 29.4093C12.8511 29.4093 12.6747 29.2959 12.6747 29.1564C12.6747 29.0169 12.8511 28.9035 13.0689 28.9035C13.2867 28.9035 13.4631 29.0169 13.4631 29.1564C13.4631 29.2959 13.2858 29.4093 13.0689 29.4093Z" fill="white"/>
<path d="M18 0C8.0586 0 0 8.0586 0 18C0 25.9983 5.2209 32.7699 12.438 35.1144H23.562C30.7791 32.7699 36 25.9983 36 18C36 8.0586 27.9414 0 18 0Z" fill="#272B00"/>
<path opacity="0.07" d="M24.1029 34.9173C23.7375 34.9596 22.95 34.8192 22.95 34.2018V28.9782C22.95 27.9936 22.6548 27.0423 22.1076 26.2314C27.4311 25.3701 29.9187 22.5477 29.9187 17.4006C29.9187 15.3873 29.3013 13.626 28.0836 12.1608C28.2069 11.8323 28.2933 11.4858 28.3428 11.1285C28.5003 9.98006 28.3284 9.25106 28.1772 8.60756L28.1529 8.50316C27.9927 7.81826 27.8037 7.33586 27.7956 7.31606L27.6957 7.06226L27.423 7.03346C27.423 7.03346 27.2628 7.01636 27.0189 7.01636C26.676 7.01636 26.1693 7.04966 25.6995 7.20986L25.5231 7.26926C24.8805 7.48616 24.273 7.69046 23.4342 8.19086C23.1354 8.36906 22.8024 8.57876 22.4433 8.81546C21.0636 8.45456 19.5705 8.27096 18 8.27096C16.4142 8.27096 14.9085 8.45546 13.5189 8.81996C13.1562 8.58146 12.8214 8.37086 12.5208 8.19086C11.682 7.69046 11.0745 7.48526 10.4319 7.26926L10.2555 7.20986C9.7866 7.05056 9.27899 7.01636 8.93609 7.01636C8.69219 7.01636 8.53199 7.03346 8.53199 7.03346L8.2602 7.06226L8.15849 7.31696C8.15039 7.33676 7.96139 7.81916 7.80119 8.50406L7.77689 8.60846C7.62479 9.25196 7.45289 9.98006 7.61129 11.1285C7.66169 11.4948 7.75169 11.8494 7.87949 12.1851C6.68519 13.6431 6.08039 15.3954 6.08039 17.4006C6.08039 22.5333 8.56979 25.3548 13.8978 26.226C13.5423 26.757 13.2939 27.3555 13.1661 27.9936C12.8691 28.1106 12.6 28.188 12.3642 28.224C12.1275 28.26 11.8809 28.278 11.6316 28.278C11.0106 28.278 10.4139 28.1619 10.1106 27.9819C9.71459 27.747 9.15929 27.1593 8.69579 26.4834C8.38079 26.0244 7.75349 25.2081 7.08659 24.9039C6.51509 24.6429 5.9184 24.4926 5.4477 24.4926C5.3487 24.4926 5.25869 24.4998 5.17949 24.5124C4.85009 24.5646 4.57829 24.7392 4.43429 24.993C4.31909 25.1946 4.30019 25.4277 4.38119 25.6302C4.54229 26.0334 5.139 26.3952 5.3883 26.532C5.6898 26.6976 6.21539 27.2016 6.51689 27.6876C6.74279 28.0512 6.84989 28.3149 6.98579 28.6479C7.06229 28.836 7.14599 29.0412 7.25939 29.2887C7.55729 29.9358 8.47709 30.6135 8.97389 30.9114C9.65249 31.3182 10.9125 31.4316 11.6037 31.4622L11.7036 31.464C11.9727 31.464 12.4236 31.4235 13.0491 31.3425V34.2018C13.0491 34.9029 12.1572 34.9308 11.9385 34.9308C11.9106 34.9308 12.3912 35.0964 12.3912 35.0964C14.1579 35.676 16.0398 36 18 36C19.9602 36 21.8421 35.676 23.6079 35.0973C23.6079 35.0973 24.1308 34.9137 24.1029 34.9173Z" fill="white"/>
<path d="M23.409 34.1964L23.4 28.9782C23.4 28.1331 23.202 27.3078 22.8222 26.5599C27.8991 25.5402 30.3696 22.5387 30.3696 17.4006C30.3696 15.3711 29.7711 13.5792 28.5912 12.0726C28.6812 11.7873 28.7478 11.4921 28.7892 11.1897C28.9584 9.95761 28.7685 9.15211 28.6155 8.50411L28.5912 8.39971C28.4238 7.68331 28.2231 7.17211 28.215 7.15051L28.1151 6.89671L28.0152 6.64291L27.7434 6.61411L27.4707 6.58531C27.4707 6.58531 27.2916 6.56641 27.0198 6.56641C26.6427 6.56641 26.0838 6.60421 25.5555 6.78331L25.3791 6.84271C24.7131 7.06681 24.084 7.27921 23.2038 7.80481C22.9464 7.95871 22.6647 8.13421 22.3632 8.33041C21.0006 7.99291 19.5345 7.82101 18 7.82101C16.4502 7.82101 14.9715 7.99381 13.5999 8.33491C13.2948 8.13691 13.0113 7.95961 12.7521 7.80481C11.8719 7.27921 11.2428 7.06771 10.5768 6.84271L10.4004 6.78331C9.8739 6.60421 9.3141 6.56641 8.937 6.56641C8.6652 6.56641 8.4861 6.58531 8.4861 6.58531L8.2143 6.61411L7.9443 6.64201L7.8435 6.89491L7.7418 7.14961C7.7328 7.17301 7.5321 7.68421 7.3647 8.40151L7.3404 8.50501C7.1874 9.15211 6.9975 9.95851 7.1667 11.1897C7.2099 11.5011 7.2792 11.8062 7.3737 12.0996C6.2172 13.599 5.6313 15.381 5.6313 17.4006C5.6313 22.5261 8.1045 25.5258 13.1886 26.5536C13.014 26.9028 12.8781 27.2718 12.7818 27.6552C12.6045 27.7155 12.4416 27.756 12.2976 27.7785C12.0834 27.8109 11.8593 27.8271 11.6325 27.8271C11.0151 27.8271 10.53 27.7065 10.341 27.594C10.0593 27.4266 9.5562 26.9397 9.0684 26.2278C8.6517 25.6203 8.0019 24.8256 7.2756 24.4935C6.6474 24.2064 5.9823 24.0417 5.4495 24.0417C5.3253 24.0417 5.211 24.0507 5.1111 24.0669C4.6458 24.1407 4.257 24.3963 4.0455 24.7689C3.8628 25.0902 3.834 25.4646 3.9663 25.7958C4.1634 26.289 4.7322 26.6823 5.175 26.9253C5.3928 27.045 5.8635 27.4824 6.138 27.9234C6.3441 28.2546 6.4395 28.4904 6.5718 28.8162C6.6501 29.0097 6.7365 29.2203 6.8535 29.475C7.2765 30.3948 8.5968 31.2066 8.7462 31.2957C9.4716 31.7304 10.6911 31.8699 11.5875 31.9104L11.6982 31.9131H11.6991C11.9151 31.9131 12.2121 31.8924 12.6027 31.8492V34.2009C12.6045 34.677 12.1194 34.785 11.4777 34.7751L11.97 34.9407C13.8555 35.6148 15.8805 36 18 36C20.1195 36 22.1445 35.6148 24.0327 34.9416L24.6654 34.7058C24.0255 34.6842 23.4144 34.5798 23.409 34.1964Z" fill="#F5F5F5"/>
</svg>
