<svg width="36" height="36" viewBox="0 0 36 36" fill="none" xmlns="http://www.w3.org/2000/svg">
<path d="M29.4697 17.4006C29.4697 15.3216 28.7659 13.5972 27.5644 12.2454C27.6949 11.9529 27.8308 11.5605 27.8983 11.0673C28.0531 9.94232 27.8704 9.26731 27.7156 8.60671C27.5608 7.94611 27.3781 7.48172 27.3781 7.48172C27.3781 7.48172 26.5483 7.39711 25.8454 7.63651C25.1425 7.87591 24.5377 8.05861 23.6656 8.57881C23.2579 8.82181 22.8475 9.08822 22.5226 9.30422C21.1339 8.91902 19.6066 8.72101 18.0001 8.72101C16.3792 8.72101 14.8384 8.91992 13.4398 9.30782C13.114 9.09092 12.7009 8.82272 12.2905 8.57792C11.4184 8.05772 10.8136 7.87502 10.1107 7.63562C9.40781 7.39622 8.57801 7.48082 8.57801 7.48082C8.57801 7.48082 8.39531 7.94522 8.24051 8.60582C8.08571 9.26642 7.90301 9.94141 8.05781 11.0664C8.12711 11.5722 8.26751 11.9718 8.40161 12.2661C7.22261 13.6098 6.53141 15.3234 6.53141 17.3997C6.53141 22.7844 9.44021 25.2423 14.7403 25.8912C14.122 26.5446 13.7071 27.3816 13.5676 28.3131C13.2193 28.4661 12.8179 28.6101 12.4318 28.6677C11.4382 28.818 10.3879 28.6677 9.88211 28.368C9.37631 28.0683 8.77601 27.3933 8.32601 26.7363C7.94621 26.1819 7.39811 25.5384 6.90131 25.3116C6.24521 25.0119 5.60711 24.8994 5.25161 24.9552C4.89521 25.0119 4.72691 25.2738 4.80161 25.4619C4.87631 25.6491 5.23271 25.9308 5.60801 26.1369C5.98331 26.343 6.56471 26.9055 6.90221 27.4491C7.27841 28.0557 7.35221 28.4058 7.67081 29.0988C7.89491 29.5866 8.66171 30.1959 9.20801 30.5235C9.67691 30.8052 10.6138 30.9654 11.6272 31.0113C11.9773 31.0275 12.8044 30.9249 13.5019 30.8259V34.2009C13.5019 34.776 12.9754 35.2134 12.43 35.1126C14.1805 35.7012 16.0498 36 18.0001 36C19.9495 36 21.8188 35.7012 23.5711 35.1144C23.0266 35.2143 22.5001 34.7769 22.5001 34.2018V28.9782C22.5001 27.7821 22.0258 26.7012 21.2644 25.8957C26.5258 25.2639 29.4697 22.8645 29.4697 17.4006ZM6.51521 25.8543C6.37661 25.7832 6.30191 25.6518 6.34871 25.5591C6.39551 25.4664 6.54671 25.4493 6.68531 25.5204C6.82391 25.5915 6.89861 25.7229 6.85181 25.8156C6.80501 25.9083 6.65381 25.9254 6.51521 25.8543ZM7.60601 26.5338C7.53311 26.613 7.37651 26.5878 7.25591 26.478C7.13531 26.3682 7.09661 26.2143 7.16951 26.1351C7.24241 26.0559 7.39901 26.0811 7.51961 26.1909C7.64021 26.3007 7.67891 26.4546 7.60601 26.5338ZM8.28461 27.6588C8.19281 27.7236 8.03711 27.6633 7.93721 27.5238C7.83731 27.3843 7.83101 27.2178 7.92281 27.153C8.01461 27.0882 8.17031 27.1485 8.27021 27.288C8.36921 27.4275 8.37641 27.594 8.28461 27.6588ZM9.25931 28.5057C9.19721 28.6065 9.02081 28.611 8.86601 28.5165C8.71121 28.422 8.63561 28.2636 8.69771 28.1628C8.75981 28.062 8.93621 28.0575 9.09101 28.152C9.24581 28.2465 9.32141 28.4049 9.25931 28.5057ZM10.1809 29.3346C9.98921 29.3112 9.84701 29.1915 9.86321 29.0673C9.87851 28.9431 10.0468 28.8621 10.2376 28.8855C10.4293 28.9089 10.5715 29.0286 10.5553 29.1528C10.54 29.2761 10.3726 29.358 10.1809 29.3346ZM11.6668 29.5497C11.4625 29.538 11.3032 29.421 11.3113 29.2896C11.3194 29.1582 11.4913 29.0601 11.6956 29.0718C11.8999 29.0835 12.0592 29.2005 12.0511 29.3319C12.043 29.4642 11.8711 29.5614 11.6668 29.5497ZM13.069 29.4093C12.8512 29.4093 12.6748 29.2959 12.6748 29.1564C12.6748 29.0169 12.8512 28.9035 13.069 28.9035C13.2868 28.9035 13.4632 29.0169 13.4632 29.1564C13.4632 29.2959 13.2859 29.4093 13.069 29.4093Z" fill="white"/>
<path d="M18 0C8.0586 0 0 8.0586 0 18C0 25.9983 5.2209 32.7699 12.438 35.1144H23.562C30.7791 32.7699 36 25.9983 36 18C36 8.0586 27.9414 0 18 0Z" fill="#111111"/>
<path opacity="0.07" d="M24.1027 34.9173C23.7373 34.9596 22.9498 34.8192 22.9498 34.2018V28.9782C22.9498 27.9936 22.6546 27.0423 22.1074 26.2314C27.4309 25.3701 29.9185 22.5477 29.9185 17.4006C29.9185 15.3873 29.3011 13.626 28.0834 12.1608C28.2067 11.8323 28.2931 11.4858 28.3426 11.1285C28.5001 9.98006 28.3282 9.25106 28.177 8.60756L28.1527 8.50316C27.9925 7.81826 27.8035 7.33586 27.7954 7.31606L27.6955 7.06226L27.4228 7.03346C27.4228 7.03346 27.2626 7.01636 27.0187 7.01636C26.6758 7.01636 26.1691 7.04966 25.6993 7.20986L25.5229 7.26926C24.8803 7.48616 24.2728 7.69046 23.434 8.19086C23.1352 8.36906 22.8022 8.57876 22.4431 8.81546C21.0634 8.45456 19.5703 8.27096 17.9998 8.27096C16.414 8.27096 14.9083 8.45546 13.5187 8.81996C13.156 8.58146 12.8212 8.37086 12.5206 8.19086C11.6818 7.69046 11.0743 7.48526 10.4317 7.26926L10.2553 7.20986C9.78644 7.05056 9.27884 7.01636 8.93594 7.01636C8.69204 7.01636 8.53184 7.03346 8.53184 7.03346L8.26004 7.06226L8.15834 7.31696C8.15024 7.33676 7.96124 7.81916 7.80104 8.50406L7.77674 8.60846C7.62464 9.25196 7.45274 9.98006 7.61114 11.1285C7.66154 11.4948 7.75154 11.8494 7.87934 12.1851C6.68504 13.6431 6.08024 15.3954 6.08024 17.4006C6.08024 22.5333 8.56964 25.3548 13.8976 26.226C13.5421 26.757 13.2937 27.3555 13.1659 27.9936C12.8689 28.1106 12.5998 28.188 12.364 28.224C12.1273 28.26 11.8807 28.278 11.6314 28.278C11.0104 28.278 10.4137 28.1619 10.1104 27.9819C9.71444 27.747 9.15914 27.1593 8.69564 26.4834C8.38064 26.0244 7.75334 25.2081 7.08644 24.9039C6.51494 24.6429 5.91824 24.4926 5.44754 24.4926C5.34854 24.4926 5.25854 24.4998 5.17934 24.5124C4.84994 24.5646 4.57814 24.7392 4.43414 24.993C4.31894 25.1946 4.30004 25.4277 4.38104 25.6302C4.54214 26.0334 5.13884 26.3952 5.38814 26.532C5.68964 26.6976 6.21524 27.2016 6.51674 27.6876C6.74264 28.0512 6.84974 28.3149 6.98564 28.6479C7.06214 28.836 7.14584 29.0412 7.25924 29.2887C7.55714 29.9358 8.47694 30.6135 8.97374 30.9114C9.65234 31.3182 10.9123 31.4316 11.6035 31.4622L11.7034 31.464C11.9725 31.464 12.4234 31.4235 13.0489 31.3425V34.2018C13.0489 34.9029 12.157 34.9308 11.9383 34.9308C11.9104 34.9308 12.391 35.0964 12.391 35.0964C14.1577 35.676 16.0396 36 17.9998 36C19.96 36 21.8419 35.676 23.6077 35.0973C23.6077 35.0973 24.1306 34.9137 24.1027 34.9173Z" fill="white"/>
<path d="M23.409 34.1964L23.4 28.9782C23.4 28.1331 23.202 27.3078 22.8222 26.5599C27.8991 25.5402 30.3696 22.5387 30.3696 17.4006C30.3696 15.3711 29.7711 13.5792 28.5912 12.0726C28.6812 11.7873 28.7478 11.4921 28.7892 11.1897C28.9584 9.95761 28.7685 9.15211 28.6155 8.50411L28.5912 8.39971C28.4238 7.68331 28.2231 7.17211 28.215 7.15051L28.1151 6.89671L28.0152 6.64291L27.7434 6.61411L27.4707 6.58531C27.4707 6.58531 27.2916 6.56641 27.0198 6.56641C26.6427 6.56641 26.0838 6.60421 25.5555 6.78331L25.3791 6.84271C24.7131 7.06681 24.084 7.27921 23.2038 7.80481C22.9464 7.95871 22.6647 8.13421 22.3632 8.33041C21.0006 7.99291 19.5345 7.82101 18 7.82101C16.4502 7.82101 14.9715 7.99381 13.5999 8.33491C13.2948 8.13691 13.0113 7.95961 12.7521 7.80481C11.8719 7.27921 11.2428 7.06771 10.5768 6.84271L10.4004 6.78331C9.87387 6.60421 9.31407 6.56641 8.93697 6.56641C8.66517 6.56641 8.48607 6.58531 8.48607 6.58531L8.21427 6.61411L7.94427 6.64201L7.84347 6.89491L7.74177 7.14961C7.73277 7.17301 7.53207 7.68421 7.36467 8.40151L7.34037 8.50501C7.18737 9.15211 6.99747 9.95851 7.16667 11.1897C7.20987 11.5011 7.27917 11.8062 7.37367 12.0996C6.21717 13.599 5.63127 15.381 5.63127 17.4006C5.63127 22.5261 8.10447 25.5258 13.1886 26.5536C13.014 26.9028 12.8781 27.2718 12.7818 27.6552C12.6045 27.7155 12.4416 27.756 12.2976 27.7785C12.0834 27.8109 11.8593 27.8271 11.6325 27.8271C11.0151 27.8271 10.53 27.7065 10.341 27.594C10.0593 27.4266 9.55617 26.9397 9.06837 26.2278C8.65167 25.6203 8.00187 24.8256 7.27557 24.4935C6.64737 24.2064 5.98227 24.0417 5.44947 24.0417C5.32527 24.0417 5.21097 24.0507 5.11107 24.0669C4.64577 24.1407 4.25697 24.3963 4.04547 24.7689C3.86277 25.0902 3.83397 25.4646 3.96627 25.7958C4.16337 26.289 4.73217 26.6823 5.17497 26.9253C5.39277 27.045 5.86347 27.4824 6.13797 27.9234C6.34407 28.2546 6.43947 28.4904 6.57177 28.8162C6.65007 29.0097 6.73647 29.2203 6.85347 29.475C7.27647 30.3948 8.59677 31.2066 8.74617 31.2957C9.47157 31.7304 10.6911 31.8699 11.5875 31.9104L11.6982 31.9131H11.6991C11.9151 31.9131 12.2121 31.8924 12.6027 31.8492V34.2009C12.6045 34.677 12.1194 34.785 11.4777 34.7751L11.97 34.9407C13.8555 35.6148 15.8805 36 18 36C20.1195 36 22.1445 35.6148 24.0327 34.9416L24.6654 34.7058C24.0255 34.6842 23.4144 34.5798 23.409 34.1964Z" fill="#F5F5F5"/>
</svg>
