<svg width="70" height="70" viewBox="0 0 70 70" fill="none" xmlns="http://www.w3.org/2000/svg">
<g clip-path="url(#clip0_167_40)">
<rect width="70" height="70" rx="35" fill="#272B00"/>
<path d="M48.1424 28.864C48.1424 30.656 47.7104 32.336 46.8464 33.904C46.0144 35.472 44.6864 36.736 42.8624 37.696C41.0704 38.656 38.7984 39.136 36.0464 39.136H30.4304V52H23.7104V18.496H36.0464C38.6384 18.496 40.8464 18.944 42.6704 19.84C44.4944 20.736 45.8544 21.968 46.7504 23.536C47.6784 25.104 48.1424 26.88 48.1424 28.864ZM35.7584 33.712C37.6144 33.712 38.9904 33.296 39.8864 32.464C40.7824 31.6 41.2304 30.4 41.2304 28.864C41.2304 25.6 39.4064 23.968 35.7584 23.968H30.4304V33.712H35.7584Z" fill="#F8FBCA"/>
</g>
<defs>
<clipPath id="clip0_167_40">
<rect width="70" height="70" rx="35" fill="white"/>
</clipPath>
</defs>
</svg>
