<svg width="122" height="31" viewBox="0 0 122 31" fill="none" xmlns="http://www.w3.org/2000/svg">
<path d="M21.1591 10.72C21.1591 12.2133 20.7991 13.6133 20.0791 14.92C19.3857 16.2267 18.2791 17.28 16.7591 18.08C15.2657 18.88 13.3724 19.28 11.0791 19.28H6.39906V30H0.799063V2.08H11.0791C13.2391 2.08 15.0791 2.45333 16.5991 3.2C18.1191 3.94667 19.2524 4.97333 19.9991 6.28C20.7724 7.58667 21.1591 9.06667 21.1591 10.72ZM10.8391 14.76C12.3857 14.76 13.5324 14.4133 14.2791 13.72C15.0257 13 15.3991 12 15.3991 10.72C15.3991 8 13.8791 6.64 10.8391 6.64H6.39906V14.76H10.8391ZM23.695 18.84C23.695 16.6 24.135 14.6133 25.015 12.88C25.9217 11.1467 27.135 9.81333 28.655 8.88C30.2017 7.94667 31.9217 7.48 33.815 7.48C35.4683 7.48 36.9083 7.81333 38.135 8.48C39.3883 9.14667 40.3883 9.98667 41.135 11V7.84H46.775V30H41.135V26.76C40.415 27.8 39.415 28.6667 38.135 29.36C36.8817 30.0267 35.4283 30.36 33.775 30.36C31.9083 30.36 30.2017 29.88 28.655 28.92C27.135 27.96 25.9217 26.6133 25.015 24.88C24.135 23.12 23.695 21.1067 23.695 18.84ZM41.135 18.92C41.135 17.56 40.8683 16.4 40.335 15.44C39.8017 14.4533 39.0817 13.7067 38.175 13.2C37.2683 12.6667 36.295 12.4 35.255 12.4C34.215 12.4 33.255 12.6533 32.375 13.16C31.495 13.6667 30.775 14.4133 30.215 15.4C29.6817 16.36 29.415 17.5067 29.415 18.84C29.415 20.1733 29.6817 21.3467 30.215 22.36C30.775 23.3467 31.495 24.1067 32.375 24.64C33.2817 25.1733 34.2417 25.44 35.255 25.44C36.295 25.44 37.2683 25.1867 38.175 24.68C39.0817 24.1467 39.8017 23.4 40.335 22.44C40.8683 21.4533 41.135 20.28 41.135 18.92ZM73.1644 7.84V30H67.5244V27.2C66.8044 28.16 65.8577 28.92 64.6844 29.48C63.5377 30.0133 62.2844 30.28 60.9244 30.28C59.191 30.28 57.6577 29.92 56.3244 29.2C54.991 28.4533 53.9377 27.3733 53.1644 25.96C52.4177 24.52 52.0444 22.8133 52.0444 20.84V7.84H57.6444V20.04C57.6444 21.8 58.0844 23.16 58.9644 24.12C59.8444 25.0533 61.0444 25.52 62.5644 25.52C64.111 25.52 65.3244 25.0533 66.2044 24.12C67.0844 23.16 67.5244 21.8 67.5244 20.04V7.84H73.1644ZM84.2897 0.4V30H78.6897V0.4H84.2897ZM99.6625 30.36C97.5292 30.36 95.6092 29.8933 93.9025 28.96C92.1958 28 90.8492 26.6533 89.8625 24.92C88.9025 23.1867 88.4225 21.1867 88.4225 18.92C88.4225 16.6533 88.9158 14.6533 89.9025 12.92C90.9158 11.1867 92.2892 9.85333 94.0225 8.92C95.7558 7.96 97.6892 7.48 99.8225 7.48C101.956 7.48 103.889 7.96 105.623 8.92C107.356 9.85333 108.716 11.1867 109.703 12.92C110.716 14.6533 111.223 16.6533 111.223 18.92C111.223 21.1867 110.703 23.1867 109.662 24.92C108.649 26.6533 107.263 28 105.503 28.96C103.769 29.8933 101.823 30.36 99.6625 30.36ZM99.6625 25.48C100.676 25.48 101.623 25.24 102.503 24.76C103.409 24.2533 104.129 23.5067 104.663 22.52C105.196 21.5333 105.463 20.3333 105.463 18.92C105.463 16.8133 104.903 15.2 103.783 14.08C102.689 12.9333 101.343 12.36 99.7425 12.36C98.1425 12.36 96.7958 12.9333 95.7025 14.08C94.6358 15.2 94.1025 16.8133 94.1025 18.92C94.1025 21.0267 94.6225 22.6533 95.6625 23.8C96.7292 24.92 98.0625 25.48 99.6625 25.48ZM117.81 30.28C116.797 30.28 115.957 29.9733 115.29 29.36C114.65 28.72 114.33 27.9333 114.33 27C114.33 26.0667 114.65 25.2933 115.29 24.68C115.957 24.04 116.797 23.72 117.81 23.72C118.797 23.72 119.61 24.04 120.25 24.68C120.89 25.2933 121.21 26.0667 121.21 27C121.21 27.9333 120.89 28.72 120.25 29.36C119.61 29.9733 118.797 30.28 117.81 30.28Z" fill="#F8FBCA"/>
</svg>
