<svg width="70" height="70" viewBox="0 0 70 70" fill="none" xmlns="http://www.w3.org/2000/svg">
<rect width="70" height="70" rx="20" fill="#F5F5F5"/>
<path d="M50.8804 27.044C50.8804 29.2093 50.3584 31.2393 49.3144 33.134C48.3091 35.0287 46.7044 36.556 44.5004 37.716C42.3351 38.876 39.5898 39.456 36.2644 39.456H29.4784V55H21.3584V14.516H36.2644C39.3964 14.516 42.0644 15.0573 44.2684 16.14C46.4724 17.2227 48.1158 18.7113 49.1984 20.606C50.3198 22.5007 50.8804 24.6467 50.8804 27.044ZM35.9164 32.902C38.1591 32.902 39.8218 32.3993 40.9044 31.394C41.9871 30.35 42.5284 28.9 42.5284 27.044C42.5284 23.1 40.3244 21.128 35.9164 21.128H29.4784V32.902H35.9164Z" fill="#111111"/>
</svg>
