<svg width="753" height="188" viewBox="0 0 753 188" fill="none" xmlns="http://www.w3.org/2000/svg">
<path d="M127.619 64.5C127.619 73.8333 125.369 82.5833 120.869 90.75C116.536 98.9167 109.619 105.5 100.119 110.5C90.7858 115.5 78.9525 118 64.6191 118H35.3691V185H0.369142V10.5H64.6191C78.1191 10.5 89.6191 12.8333 99.1191 17.5C108.619 22.1667 115.702 28.5833 120.369 36.75C125.202 44.9167 127.619 54.1667 127.619 64.5ZM63.1191 89.75C72.7858 89.75 79.9525 87.5833 84.6191 83.25C89.2858 78.75 91.6191 72.5 91.6191 64.5C91.6191 47.5 82.1191 39 63.1191 39H35.3691V89.75H63.1191ZM143.469 115.25C143.469 101.25 146.219 88.8333 151.719 78C157.385 67.1667 164.969 58.8333 174.469 53C184.135 47.1667 194.885 44.25 206.719 44.25C217.052 44.25 226.052 46.3333 233.719 50.5C241.552 54.6667 247.802 59.9167 252.469 66.25V46.5H287.719V185H252.469V164.75C247.969 171.25 241.719 176.667 233.719 181C225.885 185.167 216.802 187.25 206.469 187.25C194.802 187.25 184.135 184.25 174.469 178.25C164.969 172.25 157.385 163.833 151.719 153C146.219 142 143.469 129.417 143.469 115.25ZM252.469 115.75C252.469 107.25 250.802 100 247.469 94C244.135 87.8333 239.635 83.1667 233.969 80C228.302 76.6667 222.219 75 215.719 75C209.219 75 203.219 76.5833 197.719 79.75C192.219 82.9167 187.719 87.5833 184.219 93.75C180.885 99.75 179.219 106.917 179.219 115.25C179.219 123.583 180.885 130.917 184.219 137.25C187.719 143.417 192.219 148.167 197.719 151.5C203.385 154.833 209.385 156.5 215.719 156.5C222.219 156.5 228.302 154.917 233.969 151.75C239.635 148.417 244.135 143.75 247.469 137.75C250.802 131.583 252.469 124.25 252.469 115.75ZM452.652 46.5V185H417.402V167.5C412.902 173.5 406.986 178.25 399.652 181.75C392.486 185.083 384.652 186.75 376.152 186.75C365.319 186.75 355.736 184.5 347.402 180C339.069 175.333 332.486 168.583 327.652 159.75C322.986 150.75 320.652 140.083 320.652 127.75V46.5H355.652V122.75C355.652 133.75 358.402 142.25 363.902 148.25C369.402 154.083 376.902 157 386.402 157C396.069 157 403.652 154.083 409.152 148.25C414.652 142.25 417.402 133.75 417.402 122.75V46.5H452.652ZM522.186 -2.38419e-06V185H487.186V-2.38419e-06H522.186ZM618.266 187.25C604.932 187.25 592.932 184.333 582.266 178.5C571.599 172.5 563.182 164.083 557.016 153.25C551.016 142.417 548.016 129.917 548.016 115.75C548.016 101.583 551.099 89.0833 557.266 78.25C563.599 67.4167 572.182 59.0833 583.016 53.25C593.849 47.25 605.932 44.25 619.266 44.25C632.599 44.25 644.682 47.25 655.516 53.25C666.349 59.0833 674.849 67.4167 681.016 78.25C687.349 89.0833 690.516 101.583 690.516 115.75C690.516 129.917 687.266 142.417 680.766 153.25C674.432 164.083 665.766 172.5 654.766 178.5C643.932 184.333 631.766 187.25 618.266 187.25ZM618.266 156.75C624.599 156.75 630.516 155.25 636.016 152.25C641.682 149.083 646.182 144.417 649.516 138.25C652.849 132.083 654.516 124.583 654.516 115.75C654.516 102.583 651.016 92.5 644.016 85.5C637.182 78.3333 628.766 74.75 618.766 74.75C608.766 74.75 600.349 78.3333 593.516 85.5C586.849 92.5 583.516 102.583 583.516 115.75C583.516 128.917 586.766 139.083 593.266 146.25C599.932 153.25 608.266 156.75 618.266 156.75ZM731.689 186.75C725.356 186.75 720.106 184.833 715.939 181C711.939 177 709.939 172.083 709.939 166.25C709.939 160.417 711.939 155.583 715.939 151.75C720.106 147.75 725.356 145.75 731.689 145.75C737.856 145.75 742.939 147.75 746.939 151.75C750.939 155.583 752.939 160.417 752.939 166.25C752.939 172.083 750.939 177 746.939 181C742.939 184.833 737.856 186.75 731.689 186.75Z" fill="#060606"/>
</svg>
