<svg width="36" height="36" viewBox="0 0 36 36" fill="none" xmlns="http://www.w3.org/2000/svg">
<path d="M18 0C8.05855 0 0 8.05855 0 18C0 27.9415 8.05855 36 18 36C27.9415 36 36 27.9415 36 18C36 8.05978 27.9415 0.00122825 18 0Z" fill="#111111"/>
<path d="M26.255 25.9602C25.9319 26.4908 25.2404 26.6566 24.7123 26.3336C20.4859 23.7506 15.1651 23.1672 8.8998 24.5981C8.2955 24.7369 7.69366 24.3586 7.55609 23.7543C7.4173 23.15 7.79437 22.5481 8.3999 22.4106C15.256 20.8445 21.1381 21.5188 25.8828 24.4175C26.411 24.743 26.5792 25.432 26.255 25.9602Z" fill="#F5F5F5"/>
<path d="M28.4574 21.0607C28.0508 21.7215 27.1861 21.9278 26.5266 21.5225C21.6897 18.5489 14.3129 17.6879 8.59045 19.4247C7.84858 19.6494 7.06496 19.2306 6.83896 18.49C6.61542 17.7481 7.03425 16.9657 7.77489 16.7397C14.3116 14.7561 22.439 15.7166 27.9943 19.1311C28.6551 19.5377 28.8639 20.4011 28.4574 21.0607Z" fill="#F5F5F5"/>
<path d="M28.6464 15.9561C22.8441 12.5109 13.2736 12.194 7.73422 13.8742C6.84496 14.1444 5.90412 13.6421 5.63514 12.7528C5.36615 11.8636 5.86728 10.9228 6.75776 10.6525C13.1164 8.72296 23.6855 9.09512 30.3647 13.0599C31.1643 13.5352 31.4271 14.5682 30.953 15.3666C30.4802 16.1674 29.4448 16.4315 28.6464 15.9561Z" fill="#F5F5F5"/>
</svg>
