<svg width="36" height="36" viewBox="0 0 36 36" fill="none" xmlns="http://www.w3.org/2000/svg">
<path d="M18 0C8.05855 0 0 8.05855 0 18C0 27.9415 8.05855 36 18 36C27.9415 36 36 27.9415 36 18C36 8.05978 27.9415 0.00122825 18 0Z" fill="#FD6669"/>
<path d="M26.2552 25.9602C25.9321 26.4908 25.2406 26.6566 24.7125 26.3336C20.4861 23.7506 15.1653 23.1672 8.89998 24.5981C8.29568 24.7369 7.69384 24.3586 7.55628 23.7543C7.41748 23.15 7.79456 22.5481 8.40008 22.4106C15.2562 20.8445 21.1383 21.5188 25.883 24.4175C26.4111 24.743 26.5794 25.432 26.2552 25.9602Z" fill="#F5F5F5"/>
<path d="M28.4574 21.0607C28.0509 21.7215 27.1862 21.9278 26.5266 21.5225C21.6898 18.5489 14.3129 17.6879 8.59048 19.4247C7.84861 19.6494 7.06499 19.2306 6.83899 18.49C6.61545 17.7481 7.03428 16.9657 7.77492 16.7397C14.3117 14.7561 22.439 15.7166 27.9944 19.1311C28.6552 19.5377 28.864 20.4011 28.4574 21.0607Z" fill="#F5F5F5"/>
<path d="M28.6466 15.9561C22.8443 12.5109 13.2738 12.194 7.7344 13.8742C6.84515 14.1444 5.90431 13.6421 5.63532 12.7528C5.36633 11.8636 5.86746 10.9228 6.75794 10.6525C13.1166 8.72296 23.6857 9.09512 30.3649 13.0599C31.1645 13.5352 31.4273 14.5682 30.9532 15.3666C30.4804 16.1674 29.4449 16.4315 28.6466 15.9561Z" fill="#F5F5F5"/>
</svg>
